<svg width="300" height="300" viewBox="0 0 300 300" fill="none" xmlns="http://www.w3.org/2000/svg">
    <rect width="300" height="300" rx="75" fill="#FF652C"/>
    <g clip-path="url(#clip0_341_7)">
        <path d="M237.001 207.834C237.001 223.942 223.941 237.001 207.834 237.001C191.726 237.001 178.668 223.941 178.668 207.834C178.668 191.726 191.726 178.668 207.834 178.668C223.942 178.668 237.001 191.726 237.001 207.834ZM200.543 138.562C200.543 152.658 189.117 164.084 175.022 164.084C160.926 164.084 149.5 152.658 149.5 138.562C149.5 124.468 160.926 113.041 175.022 113.041C189.117 113.041 200.543 124.469 200.543 138.562ZM149.5 193.25C149.5 217.412 129.912 237.001 105.749 237.001C81.5884 237.001 62 217.412 62 193.25C62 169.087 81.5884 149.5 105.749 149.5C129.912 149.5 149.5 169.087 149.5 193.25L149.5 193.25ZM134.919 98.4595C134.919 118.595 118.595 134.919 98.4595 134.919C78.3238 134.919 62 118.595 62 98.4595C62 78.3238 78.3238 62 98.4595 62C118.595 62 134.919 78.3238 134.919 98.4595ZM237.001 83.875C237.001 95.9562 227.206 105.749 215.124 105.749C203.043 105.749 193.25 95.9562 193.25 83.8746C193.25 71.7933 203.043 62 215.125 62C227.206 62 237.001 71.7933 237.001 83.875H237.001ZM229.707 156.79C229.707 160.817 226.443 164.082 222.416 164.082C218.389 164.082 215.124 160.818 215.124 156.79C215.124 152.765 218.389 149.5 222.416 149.5C226.443 149.5 229.707 152.765 229.707 156.79ZM175.022 87.5211C175.022 93.5628 170.125 98.4595 164.084 98.4595C158.044 98.4595 153.147 93.5628 153.147 87.5211C153.147 81.4816 158.043 76.5849 164.084 76.5849C170.125 76.5849 175.022 81.4811 175.022 87.5211Z"
              fill="url(#paint0_linear_341_7)"/>
    </g>
    <defs>
        <linearGradient id="paint0_linear_341_7" x1="62" y1="62" x2="237.001" y2="62" gradientUnits="userSpaceOnUse">
            <stop stop-color="white"/>
            <stop offset="1" stop-color="white"/>
        </linearGradient>
        <clipPath id="clip0_341_7">
            <rect width="175" height="175" fill="white" transform="translate(62 62)"/>
        </clipPath>
    </defs>
</svg>