<svg width="1069" height="210" viewBox="0 0 1069 210" fill="none" xmlns="http://www.w3.org/2000/svg">
    <g clip-path="url(#clip0_329_40)">
        <path d="M210.001 175.001C210.001 194.33 194.329 210.001 175.001 210.001C155.671 210.001 140.002 194.329 140.002 175.001C140.002 155.671 155.671 140.002 175.001 140.002C194.33 140.002 210.001 155.671 210.001 175.001ZM166.252 91.875C166.252 108.789 152.541 122.5 135.626 122.5C118.711 122.5 105.001 108.789 105.001 91.8745C105.001 74.9617 118.711 61.2491 135.626 61.2491C152.541 61.2491 166.252 74.9622 166.252 91.875ZM105 157.5C105 186.495 81.4945 210.001 52.499 210.001C23.5061 210.001 0 186.495 0 157.499C0 128.505 23.5061 105.001 52.499 105.001C81.4945 105.001 105.001 128.505 105.001 157.499L105 157.5ZM87.5027 43.7514C87.5027 67.9142 67.9142 87.5027 43.7514 87.5027C19.5885 87.5027 0 67.9142 0 43.7514C0 19.5885 19.5885 0 43.7514 0C67.9142 0 87.5027 19.5885 87.5027 43.7514ZM210.001 26.25C210.001 40.7475 198.247 52.499 183.749 52.499C169.251 52.499 157.499 40.7475 157.499 26.2495C157.5 11.752 169.251 0 183.75 0C198.247 0 210.002 11.752 210.002 26.25H210.001ZM201.249 113.748C201.249 118.581 197.332 122.498 192.499 122.498C187.666 122.498 183.749 118.581 183.749 113.748C183.749 108.918 187.666 105.001 192.499 105.001C197.332 105.001 201.249 108.918 201.249 113.748ZM135.626 30.6253C135.626 37.8754 129.75 43.7514 122.5 43.7514C115.252 43.7514 109.376 37.8754 109.376 30.6253C109.376 23.3779 115.252 17.5019 122.5 17.5019C129.75 17.5019 135.626 23.3774 135.626 30.6253Z"
              fill="url(#paint0_linear_329_40)"/>
    </g>
    <path d="M928.16 134.696C928.16 120.36 930.976 107.816 936.608 97.064C942.411 86.1413 950.347 77.7787 960.416 71.976C970.656 66.0027 982.176 63.016 994.976 63.016C1008.29 63.016 1019.72 66.088 1029.28 72.232C1039.01 78.376 1046.01 86.2267 1050.27 95.784V65.064H1068.19V204.84H1050.27V173.864C1045.83 183.421 1038.75 191.357 1029.02 197.672C1019.47 203.816 1008.03 206.888 994.72 206.888C982.091 206.888 970.656 203.901 960.416 197.928C950.347 191.955 942.411 183.507 936.608 172.584C930.976 161.661 928.16 149.032 928.16 134.696ZM1050.27 134.952C1050.27 123.688 1047.97 113.789 1043.36 105.256C1038.75 96.7227 1032.44 90.152 1024.42 85.544C1016.57 80.936 1007.86 78.632 998.304 78.632C988.405 78.632 979.531 80.8507 971.68 85.288C963.829 89.7253 957.6 96.2107 952.992 104.744C948.555 113.107 946.336 123.091 946.336 134.696C946.336 146.131 948.555 156.2 952.992 164.904C957.6 173.437 963.829 180.008 971.68 184.616C979.531 189.053 988.405 191.272 998.304 191.272C1007.86 191.272 1016.57 188.968 1024.42 184.36C1032.44 179.752 1038.75 173.181 1043.36 164.648C1047.97 156.115 1050.27 146.216 1050.27 134.952Z"
          fill="#FF652C"/>
    <path d="M898.44 15.4V204.84H875.144V15.4H898.44Z" fill="#FF652C"/>
    <path d="M838.686 63.784V204.84H809.502V188.2C804.894 194.003 798.835 198.611 791.326 202.024C783.987 205.267 776.137 206.888 767.774 206.888C756.681 206.888 746.697 204.584 737.822 199.976C729.118 195.368 722.206 188.541 717.086 179.496C712.137 170.451 709.662 159.528 709.662 146.728V63.784H738.59V142.376C738.59 155.005 741.747 164.733 748.062 171.56C754.377 178.216 762.995 181.544 773.918 181.544C784.841 181.544 793.459 178.216 799.774 171.56C806.259 164.733 809.502 155.005 809.502 142.376V63.784H838.686Z"
          fill="#FF652C"/>
    <path d="M574.306 83.752C578.914 76.9253 585.228 71.3787 593.25 67.112C601.442 62.8453 610.743 60.712 621.154 60.712C633.271 60.712 644.194 63.6987 653.922 69.672C663.82 75.6453 671.586 84.1787 677.218 95.272C683.021 106.195 685.922 118.909 685.922 133.416C685.922 147.923 683.021 160.808 677.218 172.072C671.586 183.165 663.82 191.784 653.922 197.928C644.194 204.072 633.271 207.144 621.154 207.144C610.572 207.144 601.271 205.096 593.25 201C585.399 196.733 579.084 191.272 574.306 184.616V204.84H538.466V15.4H574.306V83.752ZM649.314 133.416C649.314 124.883 647.522 117.544 643.938 111.4C640.524 105.085 635.916 100.307 630.114 97.064C624.482 93.8213 618.338 92.2 611.682 92.2C605.196 92.2 599.052 93.9067 593.25 97.32C587.618 100.563 583.01 105.341 579.426 111.656C576.012 117.971 574.306 125.395 574.306 133.928C574.306 142.461 576.012 149.885 579.426 156.2C583.01 162.515 587.618 167.379 593.25 170.792C599.052 174.035 605.196 175.656 611.682 175.656C618.338 175.656 624.482 173.949 630.114 170.536C635.916 167.123 640.524 162.259 643.938 155.944C647.522 149.629 649.314 142.12 649.314 133.416Z"
          fill="#FF652C"/>
    <path d="M356.78 133.16C356.78 118.483 359.511 105.597 364.972 94.504C370.604 83.4107 378.199 74.8773 387.756 68.904C397.314 62.9307 407.98 59.944 419.756 59.944C429.826 59.944 438.615 61.992 446.124 66.088C453.804 70.184 459.692 75.56 463.788 82.216V61.992H507.564V204.84H463.788V184.616C459.522 191.272 453.548 196.648 445.868 200.744C438.359 204.84 429.57 206.888 419.5 206.888C407.895 206.888 397.314 203.901 387.756 197.928C378.199 191.784 370.604 183.165 364.972 172.072C359.511 160.808 356.78 147.837 356.78 133.16ZM463.788 133.416C463.788 122.493 460.716 113.875 454.572 107.56C448.599 101.245 441.26 98.088 432.556 98.088C423.852 98.088 416.428 101.245 410.284 107.56C404.311 113.704 401.324 122.237 401.324 133.16C401.324 144.083 404.311 152.787 410.284 159.272C416.428 165.587 423.852 168.744 432.556 168.744C441.26 168.744 448.599 165.587 454.572 159.272C460.716 152.957 463.788 144.339 463.788 133.416Z"
          fill="#FF652C"/>
    <path d="M348.576 102.952H326.048V204.84H275.616V102.952H260V61.224H275.616V59.944C275.616 41.512 280.992 27.432 291.744 17.704C302.667 7.80532 318.283 2.85599 338.592 2.85599C342.688 2.85599 345.845 2.94132 348.064 3.11198V45.864C346.699 45.6933 344.821 45.608 342.432 45.608C336.971 45.608 332.96 46.888 330.4 49.448C327.84 51.8373 326.389 55.7626 326.048 61.224H348.576V102.952Z"
          fill="#FF652C"/>
    <defs>
        <linearGradient id="paint0_linear_329_40" x1="0" y1="0" x2="210.002" y2="0" gradientUnits="userSpaceOnUse">
            <stop stop-color="#FF652C"/>
            <stop offset="1" stop-color="#FF652C"/>
        </linearGradient>
        <clipPath id="clip0_329_40">
            <rect width="210" height="210" fill="white"/>
        </clipPath>
    </defs>
</svg>